<?xml version="1.0" encoding="UTF-8" standalone="no"?>
<svg
   xmlns:dc="http://purl.org/dc/elements/1.1/"
   xmlns:cc="http://creativecommons.org/ns#"
   xmlns:rdf="http://www.w3.org/1999/02/22-rdf-syntax-ns#"
   xmlns:svg="http://www.w3.org/2000/svg"
   xmlns="http://www.w3.org/2000/svg"
   xmlns:xlink="http://www.w3.org/1999/xlink"
   id="svg8"
   version="1.1"
   viewBox="0 0 210 297"
   height="297mm"
   width="210mm">
  <defs
     id="defs2">
    <linearGradient
       id="linearGradient1317-0">
      <stop
         id="stop1550"
         offset="0"
         style="stop-color:#0000f9;stop-opacity:1;" />
      <stop
         id="stop1552"
         offset="1"
         style="stop-color:#b506dc;stop-opacity:0.95294118" />
    </linearGradient>
    <linearGradient
       gradientUnits="userSpaceOnUse"
       y2="129.7153"
       x2="105.44023"
       y1="133.57217"
       x1="125.49356"
       id="linearGradient1548"
       xlink:href="#linearGradient1317-0" />
  </defs>
  <metadata
     id="metadata5">
    <rdf:RDF>
      <cc:Work
         rdf:about="">
        <dc:format>image/svg+xml</dc:format>
        <dc:type
           rdf:resource="http://purl.org/dc/dcmitype/StillImage" />
        <dc:title></dc:title>
      </cc:Work>
    </rdf:RDF>
  </metadata>
  <g
     id="layer1">
    <path
       d="M 132.16196,123.87286 C 125.78095,135.1667 95.191172,83.96876 85.256821,92.345073 75.32247,100.72139 88.872453,155.03679 75.827126,153.73399 62.781799,152.43118 88.384995,105.98342 74.413286,101.97502 60.441577,97.966624 35.052501,160.23026 27.399453,147.51029 19.746405,134.79031 83.368368,103.08849 78.230929,89.174436 73.09349,75.260385 5.7869525,86.697385 5.3025428,73.108659 4.8181332,59.519934 59.527672,113.89615 64.755879,100.17212 69.984086,86.448083 18.083751,51.442348 28.126756,41.892743 38.169761,32.343137 65.42057,91.937238 78.366379,87.912134 91.312188,83.88703 70.646128,32.750774 85.64394,36.257612 100.64175,39.764449 53.437597,86.450905 61.542686,97.929899 69.647774,109.40889 128.88568,59.77392 133.98015,73.510421 c 5.09447,13.736501 -56.280277,14.555701 -60.000799,28.032189 -3.720523,13.47649 64.563619,11.03641 58.182609,22.33025 z"
       id="path819"
       style="fill:none;fill-opacity:0.1557789;fill-rule:nonzero;stroke-width:3.46499991;stroke-linejoin:round;stroke-miterlimit:4;stroke-dasharray:none;paint-order:normal" />
    <path
       transform="matrix(-1.4974612,-1.5876105,-1.7901687,2.0528974,494.58797,49.960282)"
       d="m 105.44023,129.7153 c -9.127875,16.36723 -6.600049,-48.031579 -22.688636,-38.421083 -16.088587,9.610493 41.813416,37.911623 23.075046,38.190263 -18.738377,0.27864 38.29654,-29.731601 21.92931,-38.859478 -16.36723,-9.127877 -11.92572,55.167288 -21.53622,39.078708 -9.610494,-16.08859 44.89659,18.29997 44.61795,-0.4384 -0.27864,-18.73837 -53.739134,17.25567 -44.61126,0.88844 9.12788,-16.36723 6.60006,48.03158 22.68864,38.42108 16.08859,-9.61049 -41.813413,-37.91162 -23.07504,-38.19026 18.73837,-0.27864 -38.29654,29.7316 -21.929313,38.85948 16.367223,9.12787 11.925723,-55.1673 21.536223,-39.07871 9.61049,16.08859 -44.896597,-18.29997 -44.617957,0.4384 0.27864,18.73837 53.739137,-17.25567 44.611257,-0.88844 z"
       id="path1311"
       style="opacity:1;fill:url(#linearGradient1548);fill-opacity:1;fill-rule:nonzero;stroke-width:3.46499991;stroke-linejoin:round;stroke-miterlimit:4;stroke-dasharray:none;paint-order:normal" />
  </g>
</svg>
